<?xml version="1.0" encoding="UTF-8" standalone="no"?>
<svg
   width="251.16718mm"
   height="69.058899mm"
   viewBox="0 0 949.16065 260.97369"
   version="1.1"
   id="svg1"
   sodipodi:docname="LogoRecyclica.svg"
   inkscape:export-filename="LogoRecyclica.png"
   inkscape:export-xdpi="96"
   inkscape:export-ydpi="96"
   xmlns:inkscape="http://www.inkscape.org/namespaces/inkscape"
   xmlns:sodipodi="http://sodipodi.sourceforge.net/DTD/sodipodi-0.dtd"
   xmlns="http://www.w3.org/2000/svg"
   xmlns:svg="http://www.w3.org/2000/svg">
  <defs
     id="defs1">
    <clipPath
       clipPathUnits="userSpaceOnUse"
       id="clipPath1736">
      <path
         d="m 1677.7059,1598.1519 h 209.375 v 287.5 h -209.375 z"
         transform="matrix(5.208618,0,0,5.208618,-8738.6291,-8324.4003)"
         clip-rule="evenodd"
         id="path1736" />
    </clipPath>
    <clipPath
       clipPathUnits="userSpaceOnUse"
       id="clipPath1739">
      <path
         d="m 1765.0903,1532.6566 -21.7337,151.5747 -151.5749,-21.7337 21.7339,-151.5747 z"
         transform="matrix(-0.22423875,-1.5638726,1.5638726,-0.22423875,-1872.078,3232.0574)"
         id="path1739" />
    </clipPath>
  </defs>
  <sodipodi:namedview
     id="namedview1"
     pagecolor="#a7d6c7"
     bordercolor="#000000"
     borderopacity="0.25"
     inkscape:showpageshadow="2"
     inkscape:pageopacity="0.0"
     inkscape:pagecheckerboard="0"
     inkscape:deskcolor="#d1d1d1"
     inkscape:document-units="mm"
     showgrid="false"
     inkscape:export-bgcolor="#55642e00" />
  <path
     id="Seleção"
     fill="none"
     stroke="#000000"
     stroke-width="1"
     d="m 444.7168,153.96 c 1.06,7.88 3.28,14.63 6.2,22 10.81,27.29 30.82,43.65 60.8,44 21.83,0.25 19.61,-2.44 34,-3.83 3.32,-0.32 10.09,0.54 12.4,-1.77 2.41,-2.4 1.64,-13.73 1.6,-17.4 l -1,-13 v -23 c -0.05,-2.73 -0.39,-8.27 -4.73,-6.6 -2.79,1.07 -7.16,8.05 -9.45,10.59 -7.22,7.98 -20.12,15.15 -30.82,10.09 -17.62,-8.33 -23.97,-40.33 -24,-58.08 v -13 c 0.03,-16.44 5.44,-45.74 19.09,-56.21 10.66,-8.18 24.23,-3.04 32.91,5.25 2.63,2.52 9.07,10.55 12,11.22 5.39,1.23 4.99,-6.01 5,-9.26 l 1.09,-35 c 0.3,-4.14 2.1,-10.13 -0.83,-13.69 -2.65,-3.21 -8.42,-2.11 -12.26,-2.48 L 512.7168,-2.6410756e-8 C 507.4868,0.19999997 496.6468,2.09 491.7168,3.82 c -30.56,10.73 -43.08,40.63 -48.25,70.14 -1.39,7.95 -2.74,15.9 -2.75,24 v 17 h -10 c -8.11,0.15 -8.19,4.21 -11.58,12 l -16.42,36 c -5.27,-4.22 -5.73,-7.35 -8.86,-13 l -10.89,-20 c -1.76,-3.48 -6.06,-12.93 -9.46,-14.4 -1.67,-0.72 -4.92,-0.6 -6.79,-0.61 h -23 -9 l -21,-2.95 c -11.93,-0.38 -25.94,4.41 -35,12.17 -5.34,4.57 -11.35,11.57 -14.68,17.79 -2.74,5.12 -2.42,9.09 -6.32,13 -0.25,-27.25 -26.75,-43.94 -52,-42.96 -21.34,0.83 -39.02,11.39 -48.22,30.96 -2.91,6.19 -5.08,15.15 -4.69,22 1.17,20.41 14.42,39.49 33.91,46.45 9.22,3.3 18.36,2.66 28,2.55 10.84,-0.13 23.47,-4.85 32,-11.53 2.64,-2.06 7.69,-7.05 8.29,-10.43 0.5,-2.73 -1.28,-3.98 -3.35,-5.24 -2.82,-1.73 -15.2,-8.13 -17.94,-7.98 -4.31,0.24 -6.67,5.05 -13,7.34 -14.46,5.24 -31.61,-1.03 -32,-18.16 h 45 l 26,-1 c 0.44,20.24 16.85,39.33 36,45.23 7.64,2.35 16.99,1.86 25,1.77 4.99,-0.06 20.38,-2.92 22.94,-7.39 2,-3.51 -4.3,-14.16 -6.2,-17.59 -0.93,-1.67 -1.94,-3.68 -3.95,-4.21 -3.18,-0.85 -4.89,2.44 -15.79,2.18 -12.25,-0.3 -23.49,-11.5 -22.9,-23.99 0.45,-9.44 7.81,-19.52 16.9,-22.35 2.3,-0.72 5.57,-0.69 8,-0.64 8.52,0.2 11.58,3.44 14.61,1.87 2.57,-1.34 6.15,-10.01 7.39,-12.88 h 2 l 26.86,48 c 2.07,3.72 10.05,16.64 10.01,20 -0.04,2.99 -5.69,12.65 -7.34,16 l -12.95,25 c -3.51,6.22 -9.3,16.18 -10.58,23 h 29 c 2.39,0 5.69,0.21 7.79,-1.02 2.86,-1.67 4.63,-6.11 6.07,-8.98 l 8.9,-17 26.99,-52 c 3.24,-6.47 11.54,-23.85 16.25,-28 z m -338,-29 c 11,-5.9 17.74,-17.37 21.28,-29 7.48,-24.57 3.36,-61.45 -18.28,-78.1 C 93.176796,5.13 75.876796,2.93 55.716796,2.96 l -16,1 -16,0.96 c -5.51,0.21 -17.4399997,-2.75 -21.4299997,0.78 -4.4,3.65 -0.57,14.4 0,19.26 l 0.72,7 4.71,46 1,15 v 35 l -1,16 -3.85,39 -3.15000003,21 c -0.55,2.9 -1.6,6.99 0.74000003,9.4 2.1,2.16 8.32,1.63 11.2599997,1.6 l 10,-0.96 h 11 l 22.94,1.36 c 6.68,-2.61 3.21,-13.19 2.31,-18.4 l -5.16,-41 c -0.18,-2.59 -1.15,-11.72 0.55,-13.31 2.43,-2.28 10.66,1.17 13.36,2.35 14.09,6.14 20.93,16.79 21,31.96 0.04,8.01 -0.5,17.14 -1.99,25 -0.54,2.8 -1.87,9.02 0,11.4 1.48,1.85 4.86,1.58 6.99,1.6 L 113.7168,214 l 8,0.96 h 9 c 4.2,0.38 10.33,2.54 12.96,-2.15 2.27,-4.03 -3.71,-18.95 -5.1,-23.85 -3.65,-12.86 -4.87,-27.23 -11.37,-39 -7.14,-12.91 -13.54,-15.29 -20.49,-25 z M 66.716796,39.61 c 16.69,-3.04 20.98,14.61 21,27.35 0.03,17.22 0.21,43.52 -20,50.09 -2.94,0.95 -12.9,1.94 -14.98,-0.69 -1.25,-1.59 -1.02,-5.41 -1.02,-7.4 -0.03,-14.29 -0.78,-35.46 1.61,-49 1.6,-9.03 4.31,-16.54 13.39,-20.35 z M 593.7168,55.96 v 67 44 44 c 0.04,7.08 0.69,7.9 8,8 h 17 c 2.14,-0.04 4.77,0.04 6.4,-1.6 1.92,-1.92 1.59,-5.86 1.6,-8.4 v -117 -27 c 0,-1.99 0.23,-5.81 -1.02,-7.4 -1.57,-1.98 -5.68,-1.6 -7.98,-1.6 z m 60,6.39 c -8.41,2.71 -15.58,11.42 -14.66,20.61 1.05,10.64 11.47,20.57 22.66,18.2 19.98,-4.22 22.58,-27.9 7,-36.97 -4.54,-2.65 -9.95,-2.53 -15,-1.84 z m 106,87.61 7.3,-15 c 1.01,-2.03 2.61,-4.53 1.97,-6.9 -0.74,-2.73 -3.89,-4.08 -6.27,-5.03 -6.06,-2.42 -12.47,-3.99 -19,-4.07 -14.14,-0.16 -25.11,0.86 -37,9.61 -6.64,4.88 -14.65,13.82 -18.1,21.39 -3.84,8.42 -4,14.03 -3.9,23 0.33,28.27 27.9,49.6 55,48.99 6.54,-0.15 16.88,-2.35 23,-4.7 3.51,-1.34 7.27,-2.85 6.32,-7.33 l -3.9,-8.96 c -1.2,-2.76 -2.85,-7.48 -5.63,-8.94 -3.6,-1.88 -6.9,1.58 -14.79,1.9 -8.64,0.35 -14.32,-3.23 -19.61,-9.96 -10.61,-13.49 -2.16,-32.74 13.61,-37.21 7.98,-2.27 13.72,1.16 21,3.21 z m -115.69,-27.4 c -0.75,0.64 -0.97,0.2 -1.71,1.71 -1.02,2.09 -0.6,18.2 -0.6,21.69 v 64 c 0.02,8.73 0.46,8.98 10,9 h 14 c 2.33,-0.01 6.4,0.25 8.01,-1.74 1.24,-1.54 0.99,-5.32 0.99,-7.26 v -67 c 0,-3.68 0.95,-17.96 -1.6,-19.98 -1.59,-1.25 -5.41,-1.02 -7.4,-1.02 -5.49,-0.01 -16.91,-0.56 -21.69,0.6 z m -454.31,26.4 c 1.11,-18.82 31.12,-21.53 36,-1 z"
     sodipodi:nodetypes="cccccccccccccccccccccccccccccccccccccccsccccccccccccccccccccccccccccsccccccccccccccccccccccccccccccccccccccccccccccccccccccccscscccccccccccccccccccccccccsccccsscccccc"
     style="fill:#ffffff;stroke:none" />
  <path
     d="m 889.53182,165.32719 -19.38932,34.81093 19.75105,34.51592 -0.0724,-15.19291 16.42304,-0.295 c 10.27343,-0.29502 15.84425,-8.33397 15.84425,-8.33397 L 946.90387,167.466 c 5.28141,-12.16908 -0.36174,-20.4293 -0.36174,-20.4293 l -17.21887,-30.09081 -34.14835,20.13429 21.9215,38.64604 c 0.79583,2.06505 -0.50643,3.68759 -2.89392,3.68759 l -24.5984,0.1475 z"
     id="path4"
     style="fill:#ffffff;stroke-width:0.730468" />
  <path
     d="m 839.8286,160.16454 -19.9681,-34.51593 -39.14037,0.29502 12.95032,7.52271 -7.95832,14.67663 c -4.84732,9.21901 -0.79582,18.21675 -0.79582,18.21675 l 24.52603,43.51366 c 7.74127,10.76779 17.58063,9.88277 17.58063,9.88277 l 34.22069,-0.22126 -0.14468,-40.19482 -43.84302,0.1475 c -2.09811,-0.295 -2.89393,-2.28631 -1.66401,-4.35137 l 12.08214,-21.83059 z"
     id="path5"
     style="fill:#ffffff;stroke-width:0.730468" />
  <path
     d="m 869.12962,118.86345 39.28506,-0.29502 19.38933,-34.663413 -12.87798,7.670205 -8.46474,-14.381635 c -5.28142,-8.923989 -14.97608,-9.809013 -14.97608,-9.809013 l -49.19678,-0.221255 c -13.02267,1.401286 -17.14652,10.546533 -17.14652,10.546533 l -16.92948,30.312048 34.2207,20.06054 21.84916,-38.719777 c 1.30226,-1.696295 3.40036,-1.401288 4.55793,0.663768 l 12.44389,21.609329 z"
     id="path6"
     style="fill:#ffffff;stroke-width:0.730468" />
  <g
     id="g1"
     transform="matrix(0.48718975,0,0,0.51092248,508.78663,3.6780376)">
    <path
       id="path1735"
       d="m 875.97052,800.14447 c 1.8e-4,9.2e-4 9.2e-4,0.002 0.001,0.003 l -65.81012,14.49012 c -1.8e-4,-4.9e-4 1.8e-4,-0.001 0,-0.002 -0.35462,-1.61072 -1.9624,-2.62921 -3.56,-2.27612 l -145.79822,32.09839 c -0.1665,0.0369 -0.29541,0.13641 -0.44818,0.19818 -0.15698,0.0624 -0.32318,0.0812 -0.47241,0.17242 -0.0301,0.0184 -0.045,0.0498 -0.0742,0.0691 -0.18127,0.11982 -0.31622,0.28003 -0.46539,0.43372 -0.12348,0.1275 -0.26569,0.23633 -0.36292,0.38098 -0.10687,0.15833 -0.1596,0.34009 -0.23468,0.51611 -0.0748,0.17682 -0.16931,0.34119 -0.20898,0.52838 -0.0359,0.16779 -0.0157,0.34253 -0.0221,0.51722 -0.008,0.2174 -0.029,0.4295 0.0113,0.64648 0.006,0.033 -0.006,0.0644 0.002,0.0974 0.0622,0.28339 0.18598,0.53339 0.31842,0.77582 0.0256,0.0471 0.0254,0.10022 0.0536,0.1463 l 0.0193,0.0316 c 4.3e-4,6.7e-4 9.1e-4,0.002 10e-4,0.002 l 160.96283,262.27433 c 0.56317,0.9191 1.54358,1.4239 2.54889,1.4239 0.53198,0 1.07111,-0.1429 1.55792,-0.4399 l 25.97889,42.3303 c -1.40412,0.8644 -1.84443,2.704 -0.98121,4.1096 l 130.30772,212.325 -198.63488,121.9068 -130.30768,-212.3279 c -0.86078,-1.4065 -2.70209,-1.8441 -4.10858,-0.9833 -0.003,0 -0.004,0 -0.007,0.01 l -25.97852,-42.3297 c 0.002,0 0.004,0 0.006,0 1.40649,-0.8636 1.8471,-2.7049 0.98327,-4.1114 L 460.2644,970.84369 c -0.0941,-0.1532 -0.2369,-0.24823 -0.3522,-0.37793 -0.10599,-0.12048 -0.17319,-0.26398 -0.30151,-0.36908 -0.0257,-0.021 -0.0583,-0.0247 -0.0844,-0.0447 -0.17551,-0.1344 -0.37412,-0.2121 -0.572,-0.30353 -0.15939,-0.0739 -0.30679,-0.17108 -0.47378,-0.21502 -0.17691,-0.0469 -0.3584,-0.037 -0.54129,-0.0508 -0.2001,-0.015 -0.39481,-0.0502 -0.59329,-0.0252 -0.16541,0.0206 -0.31949,0.0952 -0.48181,0.1441 -0.2114,0.0638 -0.42151,0.11402 -0.61622,0.22467 -0.0299,0.0168 -0.064,0.0161 -0.0936,0.0341 -0.1492,0.0916 -0.24131,0.23132 -0.36841,0.34332 -0.12439,0.10852 -0.27191,0.17829 -0.3801,0.31043 L 360.7681,1085.9748 c -1.0459,1.2751 -0.85919,3.1571 0.4169,4.2045 l -42.71851,52.1164 c -1.27499,-1.0413 -3.1557,-0.8576 -4.2045,0.4174 l -130.7265,159.491 -86.109693,-630.11766 c -0.223099,-1.63318 -1.740403,-2.77033 -3.362099,-2.55603 l -7.421501,-54.31317 c 0.0015,-1.9e-4 0.0029,-1.9e-4 0.0044,-4.3e-4 1.635597,-0.22467 2.779396,-1.73041 2.556198,-3.36737 L 6.8675003,9.3105001 506.83179,355.54401 c 1.358,0.93689 3.2128,0.6008 4.15368,-0.75141 l 45.06342,31.20841 c -4.3e-4,4.9e-4 -10e-4,8.8e-4 -0.002,10e-4 -0.93957,1.3569 -0.60107,3.2186 0.7558,4.1582 l 522.84021,362.08426 -201.39685,44.33948 c -1.61224,0.35614 -2.63061,1.94946 -2.276,3.56012 z"
       style="fill:#ffffff;fill-opacity:1;fill-rule:nonzero;stroke:none"
       transform="matrix(0.03419989,0,0,0.03419989,722.57617,271.71399)"
       clip-path="url(#clipPath1736)" />
    <path
       d="m 251,128 c 2.311,0 4.528,0.918 6.16199,2.552 1.634,1.635 2.552,3.851 2.552,6.162 V 189 c 0,2.311 -0.918,4.528 -2.552,6.162 -1.63399,1.63401 -3.85099,2.552 -6.16199,2.552 -2.311,0 -4.528,-0.91799 -6.162,-2.552 -1.63401,-1.634 -2.552,-3.851 -2.552,-6.162 v -52.286 c 0,-2.311 0.91799,-4.527 2.552,-6.162 C 246.472,128.918 248.689,128 251,128 Z m 0,174.28601 c 2.311,0 4.528,0.918 6.16199,2.552 1.634,1.63397 2.552,3.85099 2.552,6.16199 v 52.28601 c 0,2.31097 -0.918,4.52698 -2.552,6.16199 C 255.528,371.082 253.311,372 251,372 c -2.311,0 -4.528,-0.918 -6.162,-2.552 -1.63401,-1.63501 -2.552,-3.85102 -2.552,-6.16199 V 311 c 0,-2.311 0.91799,-4.52802 2.552,-6.16199 1.634,-1.634 3.851,-2.552 6.162,-2.552 z M 373,250 c 0,2.311 -0.918,4.528 -2.552,6.16199 -1.63501,1.634 -3.85102,2.552 -6.16199,2.552 H 312 c -2.311,0 -4.52802,-0.918 -6.16199,-2.552 -1.634,-1.63399 -2.552,-3.85099 -2.552,-6.16199 0,-2.311 0.918,-4.528 2.552,-6.162 1.63397,-1.63401 3.85099,-2.552 6.16199,-2.552 h 52.28601 c 2.31097,0 4.52698,0.91799 6.16199,2.552 1.634,1.634 2.552,3.851 2.552,6.162 z m -174.286,0 c 0,2.311 -0.91799,4.528 -2.552,6.16199 -1.634,1.634 -3.851,2.552 -6.162,2.552 h -52.286 c -2.311,0 -4.527,-0.918 -6.162,-2.552 C 129.918,254.528 129,252.311 129,250 c 0,-2.311 0.918,-4.528 2.552,-6.162 1.635,-1.63401 3.851,-2.552 6.162,-2.552 H 190 c 2.311,0 4.528,0.91799 6.162,2.552 1.63401,1.634 2.552,3.851 2.552,6.162 z m -33.985,-86.271 c 1.63401,-1.634 3.84999,-2.552 6.161,-2.552 2.31,0 4.526,0.918 6.16099,2.552 l 37,36.98301 c 1.58802,1.64399 2.46601,3.845 2.446,6.12999 -0.02,2.285 -0.93599,4.47 -2.55198,6.08599 -1.61501,1.61602 -3.80101,2.53202 -6.08602,2.55201 -2.28498,0.02 -4.48599,-0.859 -6.12999,-2.446 l -37,-36.98301 C 163.095,174.416 162.177,172.2 162.177,169.89 c 0,-2.31101 0.918,-4.52699 2.552,-6.161 z m 123.237,123.237 c 1.63401,-1.634 3.85001,-2.55099 6.16101,-2.55099 2.31098,0 4.52698,0.91699 6.16098,2.55099 l 36.98301,36.98301 c 1.58801,1.64398 2.466,3.845 2.44601,6.13 -0.02,2.285 -0.936,4.47098 -2.552,6.086 -1.61502,1.616 -3.801,2.53198 -6.086,2.552 -2.285,0.02 -4.48602,-0.858 -6.13,-2.44601 L 287.966,299.28799 c -1.634,-1.634 -2.55099,-3.85 -2.55099,-6.16098 0,-2.311 0.91699,-4.527 2.55099,-6.16101 z m -73.932,0 c 1.634,1.63401 2.55101,3.85001 2.55101,6.16101 0,2.31098 -0.91701,4.52698 -2.55101,6.16098 L 177.05099,336.271 c -1.64399,1.58801 -3.845,2.466 -6.12998,2.44601 -2.28501,-0.02 -4.47101,-0.936 -6.086,-2.552 -1.61602,-1.61502 -2.53202,-3.801 -2.55201,-6.086 -0.02,-2.285 0.85801,-4.48602 2.446,-6.13 L 201.71201,286.966 c 1.63398,-1.634 3.84999,-2.55099 6.16099,-2.55099 2.31101,0 4.52699,0.91699 6.161,2.55099 z"
       style="fill:#ffffff;fill-opacity:1;fill-rule:nonzero;stroke:none"
       transform="matrix(-0.02874477,0.20047009,-0.20047009,-0.02874477,779.71039,228.309)"
       clip-path="url(#clipPath1739)"
       id="path1742" />
  </g>
</svg>
